<svg xmlns="http://www.w3.org/2000/svg" fill="none" viewBox="0 0 32 32" height="32" width="32">
<path fill="#FF30CC" d="M8.79593 28.6304C3.73033 28.5728 1.03273 24.8032 1.06473 19.3248C1.08391 14.2441 2.85895 9.25012 5.99859 5.27993C6.87578 4.17069 8.51015 4.17606 9.51145 5.17471C10.5125 6.17311 10.4973 7.78514 9.65718 8.9223C7.44356 11.9186 6.20036 15.5984 6.18473 19.344C6.20073 23.8752 8.22633 24.2016 11.9223 22.7648C10.8759 20.1632 10.9527 16.8608 12.1783 13.0368C12.8023 11.0816 13.7015 8.87039 15.6183 7.30239C17.8039 5.51359 21.4807 4.98879 23.8519 7.20959C28.1143 11.296 24.1239 19.392 20.4631 23.04C22.3049 22.9012 23.7539 22.0128 24.9829 20.5959C25.92 19.5155 27.4587 19.0486 28.7084 19.7441C29.9487 20.4343 30.433 22.0025 29.5631 23.1243C26.3478 27.2706 20.6494 29.9517 15.3335 26.832C13.3847 27.8368 10.8919 28.656 8.79593 28.6336V28.6304ZM19.9831 10.8544C18.2487 10.9504 17.5895 13.0496 17.0551 14.5952C16.6263 15.9392 16.1143 18.0448 16.4023 19.8272C18.2519 18.0608 19.6535 15.8208 20.3415 13.3824C20.6903 12.0512 20.7447 10.7712 19.9831 10.8544Z"></path>
</svg>
